<svg width="58" height="58" viewBox="0 0 58 58" fill="none" xmlns="http://www.w3.org/2000/svg">
<g filter="url(#filter0_d_2879_76928)">
<rect x="9" y="9" width="40" height="40" rx="20" fill="white"/>
<rect x="9.5" y="9.5" width="39" height="39" rx="19.5" stroke="#B6BAC3"/>
<path d="M19.5 32L15.75 29L19.5 26" stroke="#B6BAC3" stroke-width="1.5"/>
<rect x="25.25" y="25.25" width="1.5" height="1.5" fill="#D3D6DA"/>
<rect x="25.25" y="28.25" width="1.5" height="1.5" fill="#D3D6DA"/>
<rect x="25.25" y="31.25" width="1.5" height="1.5" fill="#D3D6DA"/>
<rect x="28.25" y="25.25" width="1.5" height="1.5" fill="#D3D6DA"/>
<rect x="28.25" y="28.25" width="1.5" height="1.5" fill="#D3D6DA"/>
<rect x="28.25" y="31.25" width="1.5" height="1.5" fill="#D3D6DA"/>
<rect x="31.25" y="25.25" width="1.5" height="1.5" fill="#D3D6DA"/>
<rect x="31.25" y="28.25" width="1.5" height="1.5" fill="#D3D6DA"/>
<rect x="31.25" y="31.25" width="1.5" height="1.5" fill="#D3D6DA"/>
<path d="M38.5 26L42.25 29L38.5 32" stroke="#B6BAC3" stroke-width="1.5"/>
</g>
<defs>
<filter id="filter0_d_2879_76928" x="3" y="5" width="52" height="52" filterUnits="userSpaceOnUse" color-interpolation-filters="sRGB">
<feFlood flood-opacity="0" result="BackgroundImageFix"/>
<feColorMatrix in="SourceAlpha" type="matrix" values="0 0 0 0 0 0 0 0 0 0 0 0 0 0 0 0 0 0 127 0" result="hardAlpha"/>
<feOffset dy="2"/>
<feGaussianBlur stdDeviation="3"/>
<feComposite in2="hardAlpha" operator="out"/>
<feColorMatrix type="matrix" values="0 0 0 0 0 0 0 0 0 0 0 0 0 0 0 0 0 0 0.6 0"/>
<feBlend mode="normal" in2="BackgroundImageFix" result="effect1_dropShadow_2879_76928"/>
<feBlend mode="normal" in="SourceGraphic" in2="effect1_dropShadow_2879_76928" result="shape"/>
</filter>
</defs>
</svg>
